<svg width="100" height="100" viewBox="0 0 100 100" fill="none" xmlns="http://www.w3.org/2000/svg">
<path d="M5.55556 0H38.8889C41.9444 0 44.4444 2.5 44.4444 5.55556V38.8889C44.4444 41.9444 41.9444 44.4444 38.8889 44.4444H5.55556C2.5 44.4444 0 41.9444 0 38.8889V5.55556C0 2.5 2.5 0 5.55556 0ZM61.1111 0H94.4444C97.5 0 100 2.5 100 5.55556V38.8889C100 41.9444 97.5 44.4444 94.4444 44.4444H61.1111C58.0556 44.4444 55.5556 41.9444 55.5556 38.8889V5.55556C55.5556 2.5 58.0556 0 61.1111 0ZM5.55556 55.5556H38.8889C41.9444 55.5556 44.4444 58.0556 44.4444 61.1111V94.4444C44.4444 97.5 41.9444 100 38.8889 100H5.55556C2.5 100 0 97.5 0 94.4444V61.1111C0 58.0556 2.5 55.5556 5.55556 55.5556ZM77.7778 55.5556C74.7222 55.5556 72.2222 58.0556 72.2222 61.1111V72.2222H61.1111C58.0556 72.2222 55.5556 74.7222 55.5556 77.7778C55.5556 80.8333 58.0556 83.3333 61.1111 83.3333H72.2222V94.4444C72.2222 97.5 74.7222 100 77.7778 100C80.8333 100 83.3333 97.5 83.3333 94.4444V83.3333H94.4444C97.5 83.3333 100 80.8333 100 77.7778C100 74.7222 97.5 72.2222 94.4444 72.2222H83.3333V61.1111C83.3333 58.0556 80.8333 55.5556 77.7778 55.5556Z" fill="#26284A"/>
</svg>
