<svg width="91" height="90" viewBox="0 0 91 90" fill="none" xmlns="http://www.w3.org/2000/svg">
<path d="M81.135 66.3694C73.5508 76.1259 77.3443 84.3722 80.0117 88.5066C81.135 90 79.625 90 78.8714 90C75.7727 89.4432 72.8246 88.256 70.2141 86.5136C67.6035 84.7712 65.3872 82.5116 63.7057 79.8778C62.9521 79.4953 62.5653 79.1325 61.8089 79.4953C56.4883 81.0056 51.1875 82.1166 45.5 81.7538C20.4665 81.7538 0 63.7509 0 41.2509C0 18.7509 20.4665 0 45.5 0C70.5335 0 91 18.3684 91 41.2509C91 50.625 87.2093 59.2509 81.135 66.3694ZM45.5 52.4981L57.6286 60.7444C57.8742 60.8895 58.1562 60.9631 58.4422 60.9567C58.7283 60.9503 59.0066 60.864 59.2453 60.708C59.4839 60.5519 59.6731 60.3323 59.7911 60.0745C59.9091 59.8168 59.951 59.5313 59.9121 59.2509L55.365 44.9972L67.1068 36.0056C67.2358 35.8151 67.3192 35.5979 67.3506 35.3707C67.3819 35.1435 67.3605 34.9121 67.2878 34.6944C67.2151 34.4766 67.0932 34.278 66.9312 34.1139C66.7693 33.9498 66.5716 33.8244 66.3532 33.7472H51.5742L46.6403 19.4934C46.4963 19.3351 46.3203 19.2085 46.1236 19.1218C45.9269 19.0351 45.7139 18.9903 45.4986 18.9903C45.2832 18.9903 45.0703 19.0351 44.8736 19.1218C44.6769 19.2085 44.5008 19.3351 44.3568 19.4934L39.4229 33.7472H24.2572C23.9985 33.8401 23.7703 34.0011 23.5972 34.2127C23.4241 34.4244 23.3127 34.6788 23.2749 34.9485C23.2372 35.2181 23.2745 35.4929 23.383 35.7431C23.4914 35.9933 23.6669 36.2095 23.8903 36.3684L35.2653 45.3797L31.4746 59.2509C31.4685 59.4833 31.517 59.7139 31.6163 59.9245C31.7156 60.1352 31.863 60.3202 32.0469 60.465C32.2307 60.6097 32.4461 60.7103 32.6759 60.7588C32.9057 60.8073 33.1438 60.8023 33.3714 60.7444L45.5 52.4981Z" fill="#F1DCF6"/>
</svg>
