<svg width="233" height="200" viewBox="0 0 233 200" fill="none" xmlns="http://www.w3.org/2000/svg">
<path d="M126.803 5.17446C122.772 -1.72482 110.238 -1.72482 106.207 5.17446L1.36223 184.514C0.418432 186.121 -0.0494603 187.922 0.00413776 189.742C0.0577358 191.562 0.630996 193.338 1.66806 194.898C2.70513 196.457 4.17064 197.747 5.92178 198.641C7.67292 199.535 9.64998 200.004 11.6603 200H221.35C223.359 200.004 225.335 199.536 227.084 198.642C228.834 197.749 230.299 196.46 231.335 194.901C232.371 193.342 232.943 191.567 232.996 189.749C233.049 187.93 232.58 186.13 231.636 184.524L126.803 5.17446ZM128.154 168.352H104.856V147.253H128.154V168.352ZM104.856 126.154V73.4077H128.154L128.166 126.154H104.856Z" fill="#AB0000"/>
</svg>
