<svg width="100" height="100" viewBox="0 0 100 100" fill="none" xmlns="http://www.w3.org/2000/svg">
<path d="M89.4257 0H36.8908C31.043 0 26.3112 4.495 26.3112 10.05V38.235L1.56225 61.445C0.820706 62.1417 0.313759 63.0319 0.105748 64.0028C-0.102263 64.9736 -0.00195959 65.9813 0.393928 66.8979C0.789815 67.8145 1.46344 68.5987 2.32931 69.151C3.19518 69.7033 4.21426 69.9988 5.25722 70V95C5.25722 96.3261 5.81176 97.5979 6.79886 98.5355C7.78596 99.4732 9.12474 100 10.5207 100H94.7365C96.1325 100 97.4713 99.4732 98.4584 98.5355C99.4455 97.5979 100 96.3261 100 95V10.045C100 4.495 95.2734 0 89.4257 0ZM46.9546 90H15.7842V62.16L31.5062 47.415L46.9546 62.43V90ZM57.8921 35H47.3651V25H57.8921V35ZM78.946 75H68.4191V65H78.946V75ZM78.946 55H68.4191V45H78.946V55ZM78.946 35H68.4191V25H78.946V35Z" fill="#F1DCF6"/>
<path d="M26.3112 65H36.8381V75H26.3112V65Z" fill="#F1DCF6"/>
</svg>
