<svg width="80" height="78" viewBox="0 0 80 78" fill="none" xmlns="http://www.w3.org/2000/svg">
<path d="M71.1111 78C73.4686 78 75.7295 77.1782 77.3965 75.7154C79.0635 74.2526 80 72.2687 80 70.2V7.8C80 5.73131 79.0635 3.74735 77.3965 2.28457C75.7295 0.821783 73.4686 0 71.1111 0H8.88889C6.53141 0 4.27048 0.821783 2.60349 2.28457C0.936505 3.74735 0 5.73131 0 7.8V70.2C0 72.2687 0.936505 74.2526 2.60349 75.7154C4.27048 77.1782 6.53141 78 8.88889 78H71.1111ZM40 11.6961C47.32 11.6961 53.3333 16.965 53.3333 23.3961C53.3333 29.8233 47.32 35.1 40 35.1C32.68 35.1 26.6667 29.8233 26.6667 23.3961C26.6667 16.965 32.68 11.6961 40 11.6961ZM13.3333 59.475C13.3333 50.8209 25.3556 41.925 40 41.925C54.6444 41.925 66.6667 50.8209 66.6667 59.475V62.4H13.3333V59.475Z" fill="#F1DCF6"/>
</svg>
