<svg width="290" height="59" viewBox="0 0 290 59" fill="none" xmlns="http://www.w3.org/2000/svg">
<path d="M24.6094 36.3242C24.6094 38.9414 24.1536 41.2396 23.2422 43.2188C22.3438 45.1979 21.0547 46.7214 19.375 47.7891C17.6953 48.8568 15.7552 49.3906 13.5547 49.3906C10.2344 49.3906 7.55208 48.2057 5.50781 45.8359C3.46354 43.4531 2.44141 40.2435 2.44141 36.207V33.2773C2.44141 30.6862 2.89714 28.3945 3.80859 26.4023C4.73307 24.3971 6.03516 22.8607 7.71484 21.793C9.39453 20.7122 11.3281 20.1719 13.5156 20.1719C15.7031 20.1719 17.6302 20.6992 19.2969 21.7539C20.9766 22.8086 22.2721 24.2995 23.1836 26.2266C24.0951 28.1536 24.5703 30.3867 24.6094 32.9258V36.3242ZM22.207 33.2383C22.207 29.8138 21.4323 27.1315 19.8828 25.1914C18.3333 23.2513 16.2109 22.2812 13.5156 22.2812C10.8724 22.2812 8.76302 23.2578 7.1875 25.2109C5.625 27.151 4.84375 29.8659 4.84375 33.3555V36.3242C4.84375 39.6966 5.625 42.3724 7.1875 44.3516C8.75 46.3177 10.8724 47.3008 13.5547 47.3008C16.276 47.3008 18.3984 46.3307 19.9219 44.3906C21.4453 42.4375 22.207 39.7227 22.207 36.2461V33.2383ZM33.0664 37.418V49H30.6641V20.5625H40.3516C43.3073 20.5625 45.638 21.3177 47.3438 22.8281C49.0625 24.3385 49.9219 26.4154 49.9219 29.0586C49.9219 31.7279 49.0951 33.7917 47.4414 35.25C45.8008 36.6953 43.418 37.418 40.293 37.418H33.0664ZM33.0664 35.3867H40.3516C42.6823 35.3867 44.4596 34.8333 45.6836 33.7266C46.9076 32.6198 47.5195 31.0768 47.5195 29.0977C47.5195 27.1315 46.9076 25.569 45.6836 24.4102C44.4727 23.2383 42.7474 22.6393 40.5078 22.6133H33.0664V35.3867ZM71.0156 35.3672H57.7148V46.9688H73.0078V49H55.3125V20.5625H72.9102V22.6133H57.7148V33.3359H71.0156V35.3672ZM99.2578 49H96.8555L80.5078 24.6641V49H78.0859V20.5625H80.5078L96.875 44.918V20.5625H99.2578V49ZM128.574 49H122.715V36.8125H111.289V49H105.43V20.5625H111.289V32.0859H122.715V20.5625H128.574V49ZM157.07 35.4258C157.07 38.2253 156.576 40.6797 155.586 42.7891C154.596 44.8984 153.177 46.526 151.328 47.6719C149.492 48.8177 147.383 49.3906 145 49.3906C142.643 49.3906 140.54 48.8242 138.691 47.6914C136.842 46.5586 135.41 44.944 134.395 42.8477C133.379 40.7383 132.865 38.3164 132.852 35.582V34.1758C132.852 31.3763 133.353 28.9154 134.355 26.793C135.371 24.6576 136.797 23.0234 138.633 21.8906C140.482 20.7448 142.591 20.1719 144.961 20.1719C147.331 20.1719 149.434 20.7448 151.27 21.8906C153.118 23.0234 154.544 24.6576 155.547 26.793C156.562 28.9154 157.07 31.3698 157.07 34.1562V35.4258ZM151.133 34.1367C151.133 31.1549 150.599 28.8893 149.531 27.3398C148.464 25.7904 146.94 25.0156 144.961 25.0156C142.995 25.0156 141.478 25.7839 140.41 27.3203C139.342 28.8438 138.802 31.0833 138.789 34.0391V35.4258C138.789 38.3294 139.323 40.582 140.391 42.1836C141.458 43.7852 142.995 44.5859 145 44.5859C146.966 44.5859 148.477 43.8177 149.531 42.2812C150.586 40.7318 151.12 38.4792 151.133 35.5234V34.1367ZM182.852 20.5625V39.293C182.852 42.4049 181.875 44.8659 179.922 46.6758C177.982 48.4857 175.326 49.3906 171.953 49.3906C168.633 49.3906 165.996 48.5117 164.043 46.7539C162.09 44.9961 161.094 42.5807 161.055 39.5078V20.5625H166.914V39.332C166.914 41.194 167.357 42.5547 168.242 43.4141C169.141 44.2604 170.378 44.6836 171.953 44.6836C175.247 44.6836 176.921 42.9518 176.973 39.4883V20.5625H182.852ZM202.402 41.5391C202.402 40.4323 202.012 39.5859 201.23 39C200.449 38.401 199.043 37.776 197.012 37.125C194.98 36.4609 193.372 35.8099 192.188 35.1719C188.958 33.4271 187.344 31.0768 187.344 28.1211C187.344 26.5846 187.773 25.2174 188.633 24.0195C189.505 22.8086 190.749 21.8646 192.363 21.1875C193.991 20.5104 195.814 20.1719 197.832 20.1719C199.863 20.1719 201.673 20.543 203.262 21.2852C204.85 22.0143 206.081 23.0495 206.953 24.3906C207.839 25.7318 208.281 27.2552 208.281 28.9609H202.422C202.422 27.6589 202.012 26.6497 201.191 25.9336C200.371 25.2044 199.219 24.8398 197.734 24.8398C196.302 24.8398 195.189 25.1458 194.395 25.7578C193.6 26.3568 193.203 27.151 193.203 28.1406C193.203 29.0651 193.665 29.8398 194.59 30.4648C195.527 31.0898 196.901 31.6758 198.711 32.2227C202.044 33.2253 204.473 34.4688 205.996 35.9531C207.52 37.4375 208.281 39.2865 208.281 41.5C208.281 43.9609 207.35 45.8945 205.488 47.3008C203.626 48.694 201.12 49.3906 197.969 49.3906C195.781 49.3906 193.789 48.9935 191.992 48.1992C190.195 47.3919 188.822 46.2917 187.871 44.8984C186.934 43.5052 186.465 41.8906 186.465 40.0547H192.344C192.344 43.1927 194.219 44.7617 197.969 44.7617C199.362 44.7617 200.449 44.4818 201.23 43.9219C202.012 43.349 202.402 42.5547 202.402 41.5391ZM229.375 36.6758H218.125V44.293H231.328V49H212.266V20.5625H231.289V25.3086H218.125V32.0859H229.375V36.6758Z" fill="#26284A"/>
<path d="M284.184 0H255.29C252.074 0 249.471 2.20255 249.471 4.9245V18.7352L235.859 30.108C235.451 30.4494 235.173 30.8857 235.058 31.3614C234.944 31.8371 234.999 32.3308 235.217 32.78C235.434 33.2291 235.805 33.6134 236.281 33.884C236.757 34.1546 237.318 34.2994 237.891 34.3V46.55C237.891 47.1998 238.196 47.8229 238.739 48.2824C239.282 48.7419 240.019 49 240.786 49H287.105C287.873 49 288.609 48.7419 289.152 48.2824C289.695 47.8229 290 47.1998 290 46.55V4.92205C290 2.20255 287.4 0 284.184 0ZM260.825 44.1H243.681V30.4584L252.328 23.2334L260.825 30.5907V44.1ZM266.841 17.15H261.051V12.25H266.841V17.15ZM278.42 36.75H272.63V31.85H278.42V36.75ZM278.42 26.95H272.63V22.05H278.42V26.95ZM278.42 17.15H272.63V12.25H278.42V17.15Z" fill="#26284A"/>
<path d="M249.471 31.85H255.261V36.75H249.471V31.85Z" fill="#26284A"/>
</svg>
