<svg width="55" height="49" viewBox="0 0 55 49" fill="none" xmlns="http://www.w3.org/2000/svg">
<path d="M49.1841 0H20.2899C17.0737 0 14.4711 2.20255 14.4711 4.9245V18.7352L0.859239 30.108C0.451388 30.4494 0.172567 30.8857 0.0581615 31.3614C-0.0562444 31.8371 -0.00107777 32.3308 0.21666 32.78C0.434398 33.2291 0.804891 33.6134 1.28112 33.884C1.75735 34.1546 2.31784 34.2994 2.89147 34.3V46.55C2.89147 47.1998 3.19647 47.8229 3.73937 48.2824C4.28228 48.7419 5.01861 49 5.78639 49H52.1051C52.8729 49 53.6092 48.7419 54.1521 48.2824C54.695 47.8229 55 47.1998 55 46.55V4.92205C55 2.20255 52.4004 0 49.1841 0ZM25.825 44.1H8.68131V30.4584L17.3284 23.2334L25.825 30.5907V44.1ZM31.8407 17.15H26.0508V12.25H31.8407V17.15ZM43.4203 36.75H37.6305V31.85H43.4203V36.75ZM43.4203 26.95H37.6305V22.05H43.4203V26.95ZM43.4203 17.15H37.6305V12.25H43.4203V17.15Z" fill="white"/>
<path d="M14.4711 31.85H20.261V36.75H14.4711V31.85Z" fill="white"/>
</svg>
