<svg width="55" height="63" viewBox="0 0 55 63" fill="none" xmlns="http://www.w3.org/2000/svg">
<path d="M3.4375 0H51.5625C52.4742 0 53.3485 0.331874 53.9932 0.922614C54.6378 1.51335 55 2.31457 55 3.15V59.85C55 60.6854 54.6378 61.4866 53.9932 62.0774C53.3485 62.6681 52.4742 63 51.5625 63H3.4375C2.52582 63 1.65148 62.6681 1.00682 62.0774C0.362165 61.4866 0 60.6854 0 59.85V3.15C0 2.31457 0.362165 1.51335 1.00682 0.922614C1.65148 0.331874 2.52582 0 3.4375 0ZM17.1875 28.35V18.9L0 31.5L17.1875 44.1V34.65H37.8125V28.35H17.1875Z" fill="#26284A"/>
</svg>
