<svg width="188" height="120" viewBox="0 0 188 120" fill="none" xmlns="http://www.w3.org/2000/svg">
<path d="M178.6 0H9.4C4.20944 0 0 3.83839 0 8.57143V111.429C0 116.162 4.20944 120 9.4 120H178.6C183.791 120 188 116.162 188 111.429V8.57143C188 3.83839 183.791 0 178.6 0ZM51.7 79.2536V83.5714C51.7 84.7554 50.6484 85.7143 49.35 85.7143H44.65C43.3516 85.7143 42.3 84.7554 42.3 83.5714V79.208C38.9836 79.0527 35.7582 77.9973 33.0851 76.1679C31.9394 75.383 31.8807 73.8187 32.9176 72.9161L36.3692 69.9134C37.1829 69.2063 38.3931 69.1741 39.3449 69.7179C40.4817 70.3661 41.7712 70.7143 43.1107 70.7143H51.3681C53.2774 70.7143 54.8343 69.1286 54.8343 67.1812C54.8343 65.5875 53.7739 64.1839 52.2581 63.7714L39.0394 60.1553C33.5786 58.6607 29.7627 53.8821 29.7627 48.533C29.7627 41.9652 35.3587 36.6295 42.2971 36.4607V32.1429C42.2971 30.9589 43.3487 30 44.6471 30H49.3471C50.6454 30 51.6971 30.9589 51.6971 32.1429V36.5062C55.0135 36.6616 58.2389 37.7143 60.912 39.5464C62.0576 40.3312 62.1164 41.8955 61.0794 42.7982L57.6279 45.8009C56.8142 46.508 55.6039 46.5402 54.6522 45.9964C53.5154 45.3455 52.2258 45 50.8863 45H42.629C40.7196 45 39.1628 46.5857 39.1628 48.533C39.1628 50.1268 40.2232 51.5304 41.7389 51.9429L54.9577 55.5589C60.4185 57.0536 64.2343 61.8321 64.2343 67.1812C64.2343 73.7518 58.6384 79.0848 51.7 79.2536ZM122.2 75C122.2 76.1839 121.148 77.1429 119.85 77.1429H86.95C85.6516 77.1429 84.6 76.1839 84.6 75V70.7143C84.6 69.5304 85.6516 68.5714 86.95 68.5714H119.85C121.148 68.5714 122.2 69.5304 122.2 70.7143V75ZM169.2 75C169.2 76.1839 168.148 77.1429 166.85 77.1429H143.35C142.052 77.1429 141 76.1839 141 75V70.7143C141 69.5304 142.052 68.5714 143.35 68.5714H166.85C168.148 68.5714 169.2 69.5304 169.2 70.7143V75ZM169.2 49.2857C169.2 50.4696 168.148 51.4286 166.85 51.4286H86.95C85.6516 51.4286 84.6 50.4696 84.6 49.2857V45C84.6 43.8161 85.6516 42.8571 86.95 42.8571H166.85C168.148 42.8571 169.2 43.8161 169.2 45V49.2857Z" fill="#26284A"/>
</svg>
