<svg width="41" height="40" viewBox="0 0 41 40" fill="none" xmlns="http://www.w3.org/2000/svg">
<path d="M2.36655 0.366558C2.25034 0.250345 2.11238 0.15816 1.96055 0.0952655C1.80871 0.0323713 1.64598 1.22451e-09 1.48163 0C1.31729 -1.22451e-09 1.15455 0.0323713 1.00272 0.0952655C0.850881 0.15816 0.71292 0.250345 0.59671 0.366558C0.4805 0.482771 0.388318 0.620737 0.325426 0.772577C0.262534 0.924416 0.230164 1.08716 0.230164 1.25151C0.230164 1.41586 0.262534 1.5786 0.325426 1.73044C0.388318 1.88228 0.4805 2.02024 0.59671 2.13646L17.1103 18.6505C17.0813 18.7081 17.0522 18.7656 17.0228 18.823C14.6855 23.2803 10.6608 26.3976 3.14649 29.0874C2.93037 29.1642 2.73483 29.2897 2.57499 29.4543C2.41516 29.6187 2.29532 29.8178 2.22475 30.0361C2.15418 30.2543 2.13477 30.4859 2.16803 30.7128C2.20129 30.9397 2.28633 31.156 2.41655 31.3448C4.06576 33.7351 6.21664 35.7367 8.71912 37.21C11.2216 38.6834 14.0154 39.5929 16.9056 39.8752C19.7958 40.1575 22.7128 39.8057 25.4531 38.8445C28.1933 37.8832 30.6908 36.3356 32.7714 34.3096L38.0959 39.6343C38.3306 39.8687 38.6488 40.0002 38.9805 40C39.3121 39.9998 39.6301 39.8678 39.8645 39.6331C40.0989 39.3984 40.2304 39.0802 40.2302 38.7485C40.2299 38.4168 40.0979 38.0988 39.8633 37.8644L2.36655 0.366558Z" fill="#26284A"/>
<path d="M36.1236 29.9924L35.9011 30.3674L18.9601 13.4283C19.63 10.1185 19.4875 6.41121 18.3951 1.93897C18.3393 1.71198 18.3374 1.47506 18.3897 1.24722C18.442 1.01939 18.547 0.80699 18.6963 0.627092C18.8455 0.447194 19.0349 0.304808 19.2492 0.211369C19.4634 0.117931 19.6966 0.0760442 19.93 0.0890739C23.336 0.273909 26.6377 1.32893 29.5197 3.15338C32.4018 4.97782 34.768 7.51075 36.3923 10.5102C38.0167 13.5097 38.8448 16.8756 38.7978 20.2863C38.7507 23.6971 37.83 27.0388 36.1236 29.9924Z" fill="#26284A"/>
</svg>
