<svg width="40" height="41" viewBox="0 0 40 41" fill="none" xmlns="http://www.w3.org/2000/svg">
<path d="M37.0817 30.0235C35.2449 32.9492 32.6319 35.4 29.4861 37.1475C26.3404 38.8951 22.7643 39.8826 19.0912 40.018C15.418 40.1534 11.7673 39.4323 8.4793 37.9218C5.19129 36.4114 2.37298 34.1608 0.287 31.3798C0.145397 31.1905 0.053026 30.9738 0.0170164 30.7465C-0.0189931 30.5193 0.00232173 30.2874 0.0793161 30.0689C0.15631 29.8504 0.286925 29.651 0.461079 29.4863C0.635232 29.3215 0.848267 29.1957 1.08374 29.1185C9.28581 26.4212 13.6788 23.2951 16.2273 18.8228C18.9122 14.1149 19.6052 8.95824 17.728 1.89136C17.6676 1.66378 17.666 1.42639 17.7233 1.19815C17.7807 0.969906 17.8953 0.75715 18.0581 0.576885C18.2209 0.396619 18.4273 0.253845 18.6609 0.159974C18.8945 0.0661031 19.1487 0.0237394 19.4033 0.0362685C23.121 0.221623 26.7249 1.27961 29.8707 3.10917C33.0166 4.93874 35.5994 7.47878 37.3723 10.4867C39.1453 13.4946 40.0493 16.8699 39.9979 20.2903C39.9466 23.7106 38.9416 27.0617 37.079 30.0235H37.0817Z" fill="#26284A"/>
</svg>
