<svg width="72" height="58" viewBox="0 0 72 58" fill="none" xmlns="http://www.w3.org/2000/svg">
<path d="M67.5792 19.8328L62.6544 6.60878C61.94 4.68344 60.5658 3.00859 58.7272 1.82219C56.8886 0.635796 54.679 -0.00179866 52.4124 3.81116e-06H19.5876C17.321 -0.00179866 15.1114 0.635796 13.2728 1.82219C11.4342 3.00859 10.06 4.68344 9.3456 6.60878L4.4208 19.8328C3.1112 20.3232 1.99282 21.1493 1.20624 22.2071C0.419663 23.2648 -1.73124e-06 24.5071 0 25.7778V41.8889C0 44.2669 1.4544 46.3227 3.6 47.4408V54.7778C3.6 55.6324 3.97928 56.452 4.65442 57.0562C5.32955 57.6605 6.24522 58 7.2 58H10.8C11.7548 58 12.6705 57.6605 13.3456 57.0562C14.0207 56.452 14.4 55.6324 14.4 54.7778V48.3333H57.6V54.7778C57.6 55.6324 57.9793 56.452 58.6544 57.0562C59.3295 57.6605 60.2452 58 61.2 58H64.8C65.7548 58 66.6705 57.6605 67.3456 57.0562C68.0207 56.452 68.4 55.6324 68.4 54.7778V47.4408C69.4922 46.8801 70.4 46.0718 71.0321 45.0971C71.6641 44.1224 71.9979 43.0158 72 41.8889V25.7778C72 24.5071 71.5803 23.2648 70.7938 22.2071C70.0072 21.1493 68.8888 20.3232 67.5792 19.8328ZM19.5876 6.44445H52.4088C53.9604 6.44445 55.3356 7.32734 55.8252 8.64845L59.8068 19.3333H12.1932L16.1712 8.64845C16.4101 8.00656 16.8686 7.44825 17.4818 7.05267C18.095 6.65708 18.8317 6.44428 19.5876 6.44445ZM12.6 38.6667C11.8906 38.6665 11.1882 38.5412 10.533 38.298C9.87767 38.0548 9.28231 37.6985 8.78088 37.2494C8.27944 36.8003 7.88175 36.2672 7.6105 35.6805C7.33925 35.0938 7.19976 34.465 7.2 33.8301C7.20024 33.1952 7.34019 32.5665 7.61188 31.98C7.88356 31.3935 8.28165 30.8606 8.78342 30.4118C9.28519 29.9629 9.88082 29.607 10.5363 29.3642C11.1918 29.1214 11.8942 28.9966 12.6036 28.9968C14.0362 28.9972 15.41 29.507 16.4227 30.414C17.4354 31.3211 18.0041 32.551 18.0036 33.8333C18.0031 35.1156 17.4335 36.3453 16.4202 37.2517C15.4068 38.1581 14.0326 38.6671 12.6 38.6667ZM59.4 38.6667C58.6906 38.6665 57.9882 38.5412 57.333 38.298C56.6777 38.0548 56.0823 37.6985 55.5809 37.2494C55.0794 36.8003 54.6817 36.2672 54.4105 35.6805C54.1392 35.0938 53.9998 34.465 54 33.8301C54.0002 33.1952 54.1402 32.5665 54.4119 31.98C54.6836 31.3935 55.0817 30.8606 55.5834 30.4118C56.0852 29.9629 56.6808 29.607 57.3363 29.3642C57.9918 29.1214 58.6942 28.9966 59.4036 28.9968C60.8362 28.9972 62.21 29.507 63.2227 30.414C64.2354 31.3211 64.8041 32.551 64.8036 33.8333C64.8031 35.1156 64.2335 36.3453 63.2202 37.2517C62.2068 38.1581 60.8326 38.6671 59.4 38.6667Z" fill="#5959A1"/>
</svg>
