<svg width="100" height="80" viewBox="0 0 100 80" fill="none" xmlns="http://www.w3.org/2000/svg">
<path d="M93.86 27.3556L87.02 9.11556C86.0278 6.45992 84.1192 4.14978 81.5656 2.51337C79.0119 0.87696 75.9431 -0.00248091 72.795 5.25678e-06H27.205C24.0569 -0.00248091 20.9881 0.87696 18.4344 2.51337C15.8808 4.14978 13.9722 6.45992 12.98 9.11556L6.14 27.3556C4.32111 28.0321 2.7678 29.1714 1.67533 30.6304C0.582866 32.0894 -2.4045e-06 33.8029 0 35.5556V57.7778C0 61.0578 2.02 63.8933 5 65.4356V75.5556C5 76.7343 5.52678 77.8648 6.46447 78.6983C7.40215 79.5318 8.67392 80 10 80H15C16.3261 80 17.5979 79.5318 18.5355 78.6983C19.4732 77.8648 20 76.7343 20 75.5556V66.6667H80V75.5556C80 76.7343 80.5268 77.8648 81.4645 78.6983C82.4021 79.5318 83.6739 80 85 80H90C91.3261 80 92.5979 79.5318 93.5355 78.6983C94.4732 77.8648 95 76.7343 95 75.5556V65.4356C96.517 64.6623 97.7778 63.5473 98.6556 62.2029C99.5334 60.8585 99.9971 59.3322 100 57.7778V35.5556C100 33.8029 99.4171 32.0894 98.3247 30.6304C97.2322 29.1714 95.6789 28.0321 93.86 27.3556ZM27.205 8.88889H72.79C74.945 8.88889 76.855 10.1067 77.535 11.9289L83.065 26.6667H16.935L22.46 11.9289C22.7917 11.0435 23.4286 10.2735 24.2802 9.72782C25.1319 9.18218 26.1552 8.88867 27.205 8.88889ZM17.5 53.3333C16.5148 53.333 15.5392 53.1603 14.6291 52.8248C13.719 52.4894 12.8921 51.998 12.1957 51.3785C11.4992 50.759 10.9469 50.0237 10.5701 49.2145C10.1934 48.4052 9.99967 47.538 10 46.6622C10.0003 45.7865 10.1947 44.9193 10.572 44.1103C10.9494 43.3013 11.5023 42.5663 12.1992 41.9473C12.8961 41.3282 13.7234 40.8372 14.6337 40.5023C15.5441 40.1675 16.5198 39.9953 17.505 39.9956C19.4948 39.9961 21.4028 40.6993 22.8093 41.9504C24.2159 43.2015 25.0057 44.898 25.005 46.6667C25.0043 48.4354 24.2133 50.1314 22.8058 51.3816C21.3983 52.6319 19.4898 53.3339 17.5 53.3333ZM82.5 53.3333C81.5148 53.333 80.5392 53.1603 79.6291 52.8248C78.719 52.4894 77.8921 51.998 77.1957 51.3785C76.4992 50.759 75.9469 50.0237 75.5701 49.2145C75.1934 48.4052 74.9997 47.538 75 46.6622C75.0003 45.7865 75.1947 44.9193 75.5721 44.1103C75.9494 43.3013 76.5023 42.5663 77.1992 41.9473C77.8961 41.3282 78.7234 40.8372 79.6337 40.5023C80.5441 40.1675 81.5198 39.9953 82.505 39.9956C84.4948 39.9961 86.4028 40.6993 87.8093 41.9504C89.2159 43.2015 90.0057 44.898 90.005 46.6667C90.0043 48.4354 89.2133 50.1314 87.8058 51.3816C86.3983 52.6319 84.4898 53.3339 82.5 53.3333Z" fill="#9995FA"/>
</svg>
