<svg width="72" height="68" viewBox="0 0 72 68" fill="none" xmlns="http://www.w3.org/2000/svg">
<path d="M28.4184 0.0395358L69.8184 6.41456C70.4328 6.50917 70.9864 6.7689 71.3844 7.14931C71.7823 7.52971 72 8.00714 72 8.4999V59.5001C72 59.9929 71.7823 60.4703 71.3844 60.8507C70.9864 61.2311 70.4328 61.4908 69.8184 61.5854L28.4184 67.9605C28.0273 68.0207 27.6241 68.012 27.2378 67.9351C26.8515 67.8582 26.4916 67.7149 26.1839 67.5156C25.8763 67.3162 25.6285 67.0657 25.4584 66.7821C25.2883 66.4985 25.2 66.1888 25.2 65.8751V2.12488C25.2 1.81124 25.2883 1.5015 25.4584 1.21787C25.6285 0.934251 25.8763 0.683781 26.1839 0.484439C26.4916 0.285096 26.8515 0.141823 27.2378 0.0649016C27.6241 -0.0120196 28.0273 -0.0206824 28.4184 0.0395358ZM39.6 31.1667C38.6452 31.1667 37.7295 31.4652 37.0544 31.9965C36.3793 32.5279 36 33.2486 36 34C36 34.7515 36.3793 35.4721 37.0544 36.0035C37.7295 36.5348 38.6452 36.8333 39.6 36.8333C40.5548 36.8333 41.4705 36.5348 42.1456 36.0035C42.8207 35.4721 43.2 34.7515 43.2 34C43.2 33.2486 42.8207 32.5279 42.1456 31.9965C41.4705 31.4652 40.5548 31.1667 39.6 31.1667ZM21.6 7.08323V60.9168H2.7C2.04754 60.9167 1.41717 60.7308 0.92545 60.3933C0.433732 60.0557 0.113934 59.5895 0.0251999 59.0808L0 58.7918V9.20824C2.75144e-05 8.69473 0.236314 8.1986 0.665162 7.8116C1.09401 7.42459 1.68641 7.1729 2.3328 7.10306L2.7 7.08323H21.6Z" fill="#5959A1"/>
</svg>
