<svg width="100" height="100" viewBox="0 0 100 100" fill="none" xmlns="http://www.w3.org/2000/svg">
<path d="M39.47 0.0581409L96.97 9.43318C97.8234 9.57231 98.5922 9.95426 99.145 10.5137C99.6977 11.0731 99.9999 11.7752 100 12.4999V87.5001C99.9999 88.2248 99.6977 88.9269 99.145 89.4863C98.5922 90.0457 97.8234 90.4277 96.97 90.5668L39.47 99.9419C38.9268 100.03 38.3669 100.018 37.8303 99.9046C37.2937 99.7914 36.7939 99.5807 36.3666 99.2876C35.9393 98.9944 35.5951 98.6261 35.3589 98.209C35.1226 97.7919 35 97.3364 35 96.8752V3.12482C35 2.66359 35.1226 2.20808 35.3589 1.79099C35.5951 1.3739 35.9393 1.00556 36.3666 0.71241C36.7939 0.419258 37.2937 0.208563 37.8303 0.0954436C38.3669 -0.0176759 38.9268 -0.0304153 39.47 0.0581409ZM55 45.8333C53.6739 45.8333 52.4021 46.2723 51.4645 47.0537C50.5268 47.8351 50 48.8949 50 50C50 51.1051 50.5268 52.1649 51.4645 52.9463C52.4021 53.7277 53.6739 54.1667 55 54.1667C56.3261 54.1667 57.5979 53.7277 58.5355 52.9463C59.4732 52.1649 60 51.1051 60 50C60 48.8949 59.4732 47.8351 58.5355 47.0537C57.5979 46.2723 56.3261 45.8333 55 45.8333ZM30 10.4165V89.5835H3.75C2.84381 89.5835 1.96829 89.31 1.28535 88.8136C0.602405 88.3173 0.158241 87.6316 0.0349998 86.8835L0 86.4585V13.5415C3.82145e-05 12.7864 0.328214 12.0568 0.923836 11.4876C1.51946 10.9185 2.34223 10.5484 3.24 10.4457L3.75 10.4165H30Z" fill="#9995FA"/>
</svg>
