<svg width="134" height="100" viewBox="0 0 134 100" fill="none" xmlns="http://www.w3.org/2000/svg">
<path d="M131.746 87.0861C129.171 84.8111 97.9707 73.9804 92.3092 71.9374C86.6774 69.9301 84.4307 64.3675 84.4307 64.3675C84.4307 64.3675 81.8957 65.6255 81.8957 62.0925C81.8957 58.5552 84.4307 64.3675 86.9657 50.7265C86.9657 50.7265 93.9992 48.9556 92.6024 34.311H90.9124C90.9124 34.311 95.1375 18.6537 90.9124 13.3544C86.6725 8.05501 85.0123 4.52209 75.7023 1.98839C66.4072 -0.54086 69.7872 -0.036795 63.0371 0.221929C56.277 0.476191 50.6503 3.7593 50.6503 5.5213C50.6503 5.5213 46.4252 5.77556 44.7452 7.29222C43.0552 8.80887 40.2418 15.8747 40.2418 17.6412C40.2418 19.4076 41.6485 31.2911 43.0551 33.8069L41.38 34.2976C39.9734 48.9467 47.0068 50.7221 47.0068 50.7221C49.5418 64.3631 52.0769 58.5507 52.0769 62.0881C52.0769 65.621 49.5418 64.3631 49.5418 64.3631C49.5418 64.3631 47.2901 69.9212 41.6634 71.933C36.0366 73.9537 4.80115 84.8111 2.26115 87.0817C-0.273869 89.4013 0.00945639 100 0.00945639 100H133.988C133.988 100 134.301 89.3923 131.736 87.0772L131.746 87.0861ZM100.257 97.1228H77.5812V91.5469H100.257V97.1228Z" fill="#26284A"/>
</svg>
