<svg width="110" height="100" viewBox="0 0 110 100" fill="none" xmlns="http://www.w3.org/2000/svg">
<path d="M108.15 87.0861C106.036 84.8111 80.4237 73.9804 75.7762 71.9374C71.1531 69.9301 69.3088 64.3675 69.3088 64.3675C69.3088 64.3675 67.2278 65.6255 67.2278 62.0925C67.2278 58.5552 69.3088 64.3675 71.3898 50.7265C71.3898 50.7265 77.1635 48.9556 76.0169 34.311H74.6296C74.6296 34.311 78.0979 18.6537 74.6296 13.3544C71.149 8.05501 69.7862 4.52209 62.1437 1.98839C54.5134 -0.54086 57.288 -0.036795 51.7469 0.221929C46.1976 0.476191 41.5786 3.7593 41.5786 5.5213C41.5786 5.5213 38.1103 5.77556 36.7311 7.29222C35.3438 8.80887 33.0343 15.8747 33.0343 17.6412C33.0343 19.4076 34.189 31.2911 35.3438 33.8069L33.9687 34.2976C32.8139 48.9467 38.5877 50.7221 38.5877 50.7221C40.6687 64.3631 42.7497 58.5507 42.7497 62.0881C42.7497 65.621 40.6687 64.3631 40.6687 64.3631C40.6687 64.3631 38.8203 69.9212 34.2013 71.933C29.5823 73.9537 3.94124 84.8111 1.85617 87.0817C-0.224818 89.4013 0.00776271 100 0.00776271 100H109.99C109.99 100 110.247 89.3923 108.142 87.0772L108.15 87.0861ZM82.3007 97.1228H63.686V91.5469H82.3007V97.1228Z" fill="#F1DCF6"/>
</svg>
