<svg width="81" height="56" viewBox="0 0 81 56" fill="none" xmlns="http://www.w3.org/2000/svg">
<path d="M53.1562 28C53.1562 31.3755 51.8228 34.6127 49.4493 36.9995C47.0758 39.3864 43.8566 40.7273 40.5 40.7273C37.1434 40.7273 33.9242 39.3864 31.5507 36.9995C29.1772 34.6127 27.8438 31.3755 27.8438 28C27.8438 24.6245 29.1772 21.3873 31.5507 19.0005C33.9242 16.6136 37.1434 15.2727 40.5 15.2727C43.8566 15.2727 47.0758 16.6136 49.4493 19.0005C51.8228 21.3873 53.1562 24.6245 53.1562 28Z" fill="#F1DCF6"/>
<path d="M0 28C0 28 15.1875 0 40.5 0C65.8125 0 81 28 81 28C81 28 65.8125 56 40.5 56C15.1875 56 0 28 0 28ZM40.5 45.8182C45.1993 45.8182 49.7061 43.9409 53.029 40.5994C56.352 37.2578 58.2188 32.7257 58.2188 28C58.2188 23.2743 56.352 18.7422 53.029 15.4006C49.7061 12.0591 45.1993 10.1818 40.5 10.1818C35.8007 10.1818 31.2939 12.0591 27.971 15.4006C24.648 18.7422 22.7812 23.2743 22.7812 28C22.7812 32.7257 24.648 37.2578 27.971 40.5994C31.2939 43.9409 35.8007 45.8182 40.5 45.8182Z" fill="#F1DCF6"/>
</svg>
