<svg width="69" height="67" viewBox="0 0 69 67" fill="none" xmlns="http://www.w3.org/2000/svg">
<path d="M65.55 24.6832H17.25V14.5025C17.25 10.9866 19.5891 7.72119 22.9805 7.14991C23.971 6.97762 24.9865 7.02821 25.956 7.29817C26.9255 7.56812 27.8257 8.05094 28.5939 8.71298C29.3621 9.37501 29.9799 10.2003 30.4041 11.1314C30.8283 12.0625 31.0487 13.0769 31.05 14.104H37.95C37.9483 12.1338 37.5432 10.1857 36.7607 8.38521C35.9781 6.58469 34.8355 4.97154 33.4063 3.64955C31.9771 2.32755 30.293 1.326 28.4624 0.709317C26.6317 0.0926345 24.695 -0.125518 22.7769 0.0688942C15.6044 0.781227 10.35 7.36502 10.35 14.7317V24.6832H3.45C2.535 24.6832 1.65748 25.0547 1.01048 25.716C0.363481 26.3774 0 27.2743 0 28.2096V35.2624C0 44.4522 5.7753 52.2702 13.8 55.1866V67H20.7V56.4208H48.3V67H55.2V55.1866C63.2247 52.2702 69 44.4522 69 35.2624V28.2096C69 27.2743 68.6365 26.3774 67.9895 25.716C67.3425 25.0547 66.465 24.6832 65.55 24.6832Z" fill="#5959A1"/>
</svg>
