<svg width="93" height="89" viewBox="0 0 93 89" fill="none" xmlns="http://www.w3.org/2000/svg">
<path d="M12.4 49.0493V15.757C12.3964 14.5032 12.6534 13.2612 13.156 12.1029C13.6586 10.9446 14.3969 9.89293 15.3281 9.00883L15.4056 8.93485C16.8651 7.54368 18.7389 6.61657 20.771 6.28017C22.8031 5.94376 24.8945 6.21447 26.7594 7.05532C24.9981 9.85074 24.2661 13.1279 24.6796 16.366C25.093 19.6041 26.6283 22.6175 29.0414 24.9272L31.1631 26.9526L27.2577 30.681L31.6415 34.8658L61.0921 6.75217L56.7081 2.56715L52.8025 6.29533L50.6807 4.26986C48.1404 1.85161 44.7918 0.360904 41.2183 0.0575273C37.6449 -0.245849 34.0732 0.657334 31.1257 2.60969C28.0176 0.735914 24.3344 -0.0730084 20.681 0.315808C17.0276 0.704625 13.6214 2.26806 11.0219 4.74927L10.9444 4.82326C9.43551 6.25574 8.23929 7.95969 7.42492 9.83647C6.61055 11.7132 6.19421 13.7256 6.2 15.757V49.0493H0V54.9679H6.2V60.6461C6.19987 61.1232 6.28047 61.5972 6.4387 62.0497L12.2062 78.5664C12.514 79.4507 13.1059 80.2199 13.8977 80.7647C14.6895 81.3096 15.6411 81.6025 16.6172 81.6017H19.1165L16.8562 89H23.3145L25.575 81.6017H65.8944L68.2194 89H74.6906L72.3656 81.6017H76.3821C77.3583 81.6026 78.31 81.3099 79.102 80.765C79.894 80.2201 80.4859 79.4508 80.7937 78.5664L86.5609 62.0497C86.7192 61.5972 86.7999 61.1232 86.8 60.6461V54.9679H93V49.0493H12.4ZM33.4258 8.45489C35.1338 6.82786 37.4483 5.91411 39.8613 5.91411C42.2742 5.91411 44.5887 6.82786 46.2968 8.45489L48.4181 10.4804L35.5475 22.7669L33.4258 20.7418C31.7215 19.1112 30.7643 16.9018 30.7643 14.5983C30.7643 12.2949 31.7215 10.0855 33.4258 8.45489ZM80.6 60.4056L75.2657 75.6831H17.7343L12.4 60.4056V54.9679H80.6V60.4056Z" fill="#26284A"/>
</svg>
